<svg width="18" height="18" fill="none" xmlns="http://www.w3.org/2000/svg"><rect x=".5" y=".5" width="17" height="17" rx="3.5" stroke="#fff"/><path d="M13.21 10.475c.87.842 1.05 1.253 1.08 1.304.358.624-.398.673-.398.673l-1.449.022s-.313.064-.722-.231c-.543-.388-1.284-1.4-1.682-1.269-.404.133-.276 1.195-.276 1.195s.004.13-.088.234c-.1.11-.296.068-.296.068H8.96s-1.546.006-2.808-1.367C4.779 9.607 3.63 6.808 3.63 6.808s-.07-.177.005-.271c.086-.107.32-.105.32-.105h1.55s.144.02.249.101c.088.066.135.19.135.19s.187.522.52 1.123c.647 1.17.949 1.427 1.169 1.3.32-.183.223-1.654.223-1.654s.006-.535-.161-.773c-.13-.186-.374-.24-.481-.255-.088-.01.055-.223.241-.317.279-.142.773-.152 1.354-.145.454.005.625-.002.625-.002.534.135.353.658.353 1.907 0 .401-.07.965.207 1.15.12.083.546.095 1.272-1.196.345-.612.618-1.188.618-1.188s.058-.13.145-.184c.09-.057.211-.057.211-.057l1.632.008s.49-.064.569.17c.083.242-.2.667-.865 1.597-1.096 1.527-1.218 1.385-.31 2.268z" fill="#fff"/></svg>